<svg id="Layer_1" data-name="Layer 1" xmlns="http://www.w3.org/2000/svg" viewBox="0 0 676.53 116.04"><title>TheRock</title><path d="M65.36,249.76V161.59H33.17V140.81h91.75v20.78H92.73v88.17Z" transform="translate(-33.17 -135.91)" style="fill:#5d3a00"/><path d="M211.69,249.76H185.94V209c0-3.31-.14-6.62-.4-9.91a22.59,22.59,0,0,0-1.5-7.28,8.15,8.15,0,0,0-3.81-4,15.45,15.45,0,0,0-6.66-1.21,18.56,18.56,0,0,0-6.36,1.17,30.51,30.51,0,0,0-6.88,3.74v58.24H134.72V135.91h25.61v40.75a62.89,62.89,0,0,1,12.26-8.34,28.92,28.92,0,0,1,13.2-3q12.59,0,19.25,7.94t6.65,23Z" transform="translate(-33.17 -135.91)" style="fill:#5d3a00"/><path d="M272.71,252q-23.26,0-35.66-11.12t-12.41-31.68q0-20.11,11.57-32.12t32.33-12q18.88,0,28.39,10.17t9.51,29.12v9.22H250.33a23.26,23.26,0,0,0,2.41,9.55,16.72,16.72,0,0,0,5.41,6.11,22,22,0,0,0,7.69,3.25,43.5,43.5,0,0,0,9.58,1,39.14,39.14,0,0,0,8.78-1,42.55,42.55,0,0,0,7.9-2.59,52.74,52.74,0,0,0,5.82-3q2.67-1.62,4.35-2.86H305v21.15c-2.1.83-4,1.59-5.74,2.3a51.59,51.59,0,0,1-7.14,2.16,75.89,75.89,0,0,1-8.59,1.72A80.19,80.19,0,0,1,272.71,252Zm8.49-53.85q-.22-8.11-3.77-12.36t-10.86-4.25q-7.47,0-11.67,4.47c-2.81,3-4.35,7-4.65,12.14Z" transform="translate(-33.17 -135.91)" style="fill:#5d3a00"/><path d="M449.18,249.76H415.82l-30.36-39.95h-9.81v39.95H348.44V140.82h43.82A96,96,0,0,1,408.07,142a33.71,33.71,0,0,1,12.43,4.72,28.61,28.61,0,0,1,9.3,9.47q3.43,5.75,3.43,14.6,0,12.51-5.63,20.3a39.74,39.74,0,0,1-15.07,12.41Zm-44-75.58a15,15,0,0,0-1.57-7.06,10.37,10.37,0,0,0-5.23-4.57,18.47,18.47,0,0,0-5.71-1.39q-3.15-.3-7.83-.3h-9.15V190.2h7.83a58,58,0,0,0,9.7-.69,14.35,14.35,0,0,0,6.76-3,12.81,12.81,0,0,0,3.92-4.9A18.45,18.45,0,0,0,405.14,174.18Z" transform="translate(-33.17 -135.91)" style="fill:#5d3a00"/><path d="M588.76,252a63.89,63.89,0,0,1-18.62-2.56,39.82,39.82,0,0,1-14.67-7.9,36.28,36.28,0,0,1-9.59-13.43A48.44,48.44,0,0,1,542.45,209q0-11.79,3.73-20a37.73,37.73,0,0,1,10.09-13.61,40,40,0,0,1,14.45-7.57,61.21,61.21,0,0,1,30.92-.88,62,62,0,0,1,13.68,5v22H612c-1-1-2.28-2.05-3.76-3.22a37,37,0,0,0-4.87-3.22,32.64,32.64,0,0,0-6.29-2.6,27.26,27.26,0,0,0-7.83-1.06q-9.81,0-15.18,6.84T568.71,209q0,12.36,5.75,18.43t15.25,6.08a29.69,29.69,0,0,0,8.49-1.1,28.75,28.75,0,0,0,6.29-2.64,27.81,27.81,0,0,0,4.39-3.18c1.22-1.1,2.27-2.08,3.14-3h3.3v22l-5.09,2.19a43.72,43.72,0,0,1-5.89,2.05,71.08,71.08,0,0,1-7,1.57A53.47,53.47,0,0,1,588.76,252Z" transform="translate(-33.17 -135.91)" style="fill:#5d3a00"/><path d="M709.7,249.76H679.26L657,214l-3.95,5.34v30.44H627.46V135.91h25.61v63.8l24.29-32.12h30.22L678.82,203Z" transform="translate(-33.17 -135.91)" style="fill:#5d3a00"/><polygon points="447.32 99.53 447.32 75.38 467.8 68.21 487.44 50.54 493.41 29.62 497.04 25.08 496.32 23.09 474.32 7.09 461.32 20.09 452.32 27.09 453.32 46.09 432.32 51.09 420.32 74.09 419.32 95.09 429.13 110.79 447.32 99.53" style="fill:#16e0bd"/><polygon points="504.32 45.09 498.16 28.16 497.84 27.28 495.23 30.56 489.2 51.64 468.84 69.97 449.32 76.8 449.32 100.65 432.45 111.09 481.32 111.09 489.32 98.09 503.32 86.09 501.32 65.09 504.32 45.09" style="fill:#af5b00"/></svg>